<svg xmlns="http://www.w3.org/2000/svg" width="55.142" height="27.38" viewBox="0 0 55.142 27.38">
  <g id="Group_3441" data-name="Group 3441" transform="translate(-1103 -220)">
    <path id="Path_320" data-name="Path 320" d="M275.611,361.6v8.961H273.16v-5.026l-1.637,2.422H270.24l-1.8-2.422v5.026H266.2V361.6h2.259l2.585,3.513,2.317-3.513Zm.708,2.03V361.6h8.367v2.03h-2.929v6.931h-2.5V363.63Zm17.586-2.03v8.961h-2.058l-4.212-5.122v5.122h-2.24V361.6h2.231l4.03,4.94V361.6Z" transform="translate(850.605 -132.544)" fill="#fbb815"/>
    <path id="Path_321" data-name="Path 321" d="M149.571,294.38c-7.237,0-14.063-1.35-19.214-3.81-5.39-2.575-8.357-6.079-8.357-9.88s2.968-7.3,8.357-9.88c5.15-2.46,11.976-3.81,19.214-3.81s14.063,1.35,19.214,3.81c5.39,2.575,8.357,6.079,8.357,9.88s-2.968,7.3-8.357,9.88C163.634,293.03,156.808,294.38,149.571,294.38Zm0-25.36c-6.95,0-13.46,1.283-18.342,3.619-4.643,2.221-7.209,5.083-7.209,8.061s2.556,5.84,7.209,8.051c4.882,2.336,11.4,3.619,18.342,3.619s13.46-1.283,18.342-3.619c4.643-2.211,7.209-5.083,7.209-8.051s-2.556-5.84-7.209-8.051c-4.882-2.345-11.392-3.628-18.342-3.628Z" transform="translate(981 -47)" fill="#fbb815"/>
  </g>
</svg>
