<svg xmlns="http://www.w3.org/2000/svg" width="539.388" height="471.837" viewBox="0 0 539.388 471.837">
  <g id="LLD_Heart_and_Variations-01" data-name="LLD Heart and Variations-01" transform="translate(-95.68 -142.93)">
    <g id="Group_1" data-name="Group 1" transform="translate(192.916 476.321)">
      <path id="Path_1" data-name="Path 1" d="M358.686,758.723c3.293,11.011,5.758,24.9,4.444,35.99-1.038,8.762-10.046,2.141-12.715.39-10.052-8.264-19.761-16.841-29.267-25.723-.51-.48-2.123-2.2-5.973-6.153-17.153-17.788-33.382-36.308-48.927-55.512a40.184,40.184,0,0,0-8.438-7.875c15.755-.084,31.486-.384,47.23-1a31.025,31.025,0,0,1,13.77,2.945c21.375,9.758,33.753,36.452,39.877,56.921Zm-20.127-5.17c-7.149-16.937-21.381-41.946-42.624-43.433-3.73-.15-5.6-.234-9.326-.426q19.764,31.918,41.64,62.391c4.75,3.269,7.119,4.852,11.833,7.881,12.247,10.477-.414-23.792-1.517-26.413Z" transform="translate(-257.81 -698.822)" fill="#ffb800"/>
      <path id="Path_2" data-name="Path 2" d="M485.616,845.925a95.893,95.893,0,0,1-12.607-4.9c-1.325-5.026-2.009-7.533-3.431-12.541-3.7-11.047-8.192-25.225-21.843-26.49.762,8.954,1.709,17.848,2.909,26.754-2.375-1.505-3.574-2.291-5.985-3.916-1.745-1.175-2.627-1.781-4.39-3.017,0,0,2.2,1.08.936-12.193-3.155-22.646-3.844-45.5-3.64-68.34a24.641,24.641,0,0,0-3.634-11.569c6.081-.186,9.122-.33,15.185-.714,2.2.216,4.468,2.4,5.734,5.781A737.259,737.259,0,0,1,485.616,845.925ZM459.827,797.49c-4.174-12.283-8.744-24.409-13.536-36.464.048,10.22.252,20.421.792,30.629,4.4.432,8.612,1.307,12.744,5.829Z" transform="translate(-328.304 -710.901)" fill="#ffb800"/>
      <path id="Path_3" data-name="Path 3" d="M547.646,847.295a35.093,35.093,0,0,0,2.393-10.5q2.177-29.786,4.306-59.572c-7.407,23.216-12.319,46.924-18.034,70.577-1.235.024-1.3,0-2.087-.03-3.628-26.706-8.133-53.263-12.739-79.813q1.169,33.151,2.531,66.283a47.277,47.277,0,0,0,2.141,12.631,65.556,65.556,0,0,1-9.278-2.3,38.679,38.679,0,0,0,1.056-12.3c-1.487-30.5-3.269-61.365-4.642-92.06-.03-.024-.042-.036-.072-.06a55.376,55.376,0,0,0-1.337-9.752c-.36-1.781-.852-3.5-1.343-5.236a142.289,142.289,0,0,0,17.4,13.164c3.808,19.306,7.137,38.719,11.323,57.947,4.186-15.323,8.018-30.6,13.008-45.694a124.77,124.77,0,0,0,22.089,6.237,18.342,18.342,0,0,0-4.012,9.116q-4.741,34.734-9.722,69.438c-.438,3.436-.306,6.693.42,8.642a61.558,61.558,0,0,1-13.386,3.281Z" transform="translate(-358.968 -709.368)" fill="#ffb800"/>
      <path id="Path_4" data-name="Path 4" d="M610.874,858.837a100.174,100.174,0,0,1-14.094,6.117c.522-1.026,1.049-2.051,1.541-3.173A55.717,55.717,0,0,0,600,854.363q5.866-33.106,11.365-66.277a23.364,23.364,0,0,0-.444-9.536,180.663,180.663,0,0,0,20.751,1.685,23.152,23.152,0,0,0-4.114,8.57q-7.584,30.8-15.683,61.473-.03.12-.066.24c-.414,1.547-1.4,5.008-1.349,6.315a7.477,7.477,0,0,0,.408,2.009Z" transform="translate(-393.486 -730.734)" fill="#ffb800"/>
      <path id="Path_5" data-name="Path 5" d="M649.242,789.558q-7.566,22.652-15.569,45.154c-2.429,6.759-.84,6.861-.84,6.861-4.216,2.561-6.291,3.736-10.363,5.854,2.519-3.832,2.771-4.882,4.1-9.266q9.059-30.1,17.434-60.4a16.64,16.64,0,0,0,.27-8.294,182.929,182.929,0,0,0,19.479-2.015c4.2,9.3,8.582,18.592,11.839,28.278,5.961-10.627,11.713-21.375,17.38-32.164,3.335-6.381,1.925-6.3,1.925-6.3,5.218-2.495,7.917-3.982,13.446-5.548a31.348,31.348,0,0,0-5.386,7.383q-14.556,25.1-30.227,49.5c-2.339,3.6-3.461,5.218-3.263,6.057-3.7,3.131-5.542,4.642-9.2,7.551-2.105-11.269-6.855-22.052-11.029-32.65Z" transform="translate(-403.769 -719.995)" fill="#ffb800"/>
      <path id="Path_6" data-name="Path 6" d="M719.565,797.575q-7.98,7.485-16.295,14.6c.882-1.008,1.769-2.009,2.651-3.035,1.415-1.691,3.8-5.062,4.12-5.518Q726.477,780.219,741.659,756a11.446,11.446,0,0,0,2.045-6.285,75.526,75.526,0,0,1,21.932-.516,21.239,21.239,0,0,0-6.729,5.23c-11.389,13.374-23.12,26.383-35.349,39q-.072.072-.144.15c-.936.954-3.1,3.143-3.52,3.61-.2.24-.342.4-.336.39Z" transform="translate(-436.11 -718.759)" fill="#ffb800"/>
    </g>
    <g id="Group_2" data-name="Group 2" transform="translate(96.37 293.039)">
      <path id="Path_7" data-name="Path 7" d="M185.711,551.15a39.68,39.68,0,0,0-2.273-6.063c-3-5.56-7.071-10.567-10.9-15.575-27.222-37.358-55.884-78.542-68.388-123.678A27.2,27.2,0,0,0,96.83,393.22q22.535.117,45.07.4a14.661,14.661,0,0,0-2.549,11.539c9.842,43.139,33.831,83.388,57.2,120.38q18.361-.234,36.716-.75c5.356-.162,7.263-1.373,8.732-2.969,1.277-1.385,4.264.066,6.519,3.311q8.132,11.722,16.379,23.36c-26.377,1.823-52.759,2.555-79.2,2.657Z" transform="translate(-96.83 -393.22)" fill="#ffb800"/>
      <path id="Path_8" data-name="Path 8" d="M416.656,495.608c2.771,22.436-2.207,63.98-30.275,67.777-32.788,4.432-66.031-41.8-76.323-68.148-12.8-32.764,3.676-64.376,41.136-62.919,35.9,1.4,61.18,28.59,65.462,63.285ZM373.937,456.6c-9.338-13.968-31.612-20.907-37.652-.5-7.521,25.393,9.626,61.018,24.871,80.005,4.21,5.242,12.439,16.547,20.7,15.017,7.269-1.343,9.3-11.263,9.722-17.44,1.631-23.918-4.066-56.783-17.638-77.079Z" transform="translate(-180.461 -408.85)" fill="#ffb800"/>
      <path id="Path_9" data-name="Path 9" d="M576.668,457.638a608.256,608.256,0,0,0-52.807,120.878c-1.289,4.2-3.742,6.159-6.141,4.888a158.523,158.523,0,0,1-14.586-8.726c1.283-3.6,1.325-8.648.408-14.592-7.647-34.959-17.572-69.2-30.977-102.412-3.73-7.575-7.569-15.353-15.815-18.6a61.1,61.1,0,0,1,7.911.492q14.268,2.2,28.53,4.438a11.027,11.027,0,0,1,8.642,7.713c9.068,30.041,15.4,60.916,20.169,91.9a547.23,547.23,0,0,1,36.47-89.067Q567.576,456.07,576.668,457.638Z" transform="translate(-240.892 -411.572)" fill="#ffb800"/>
      <path id="Path_10" data-name="Path 10" d="M619.079,610.385c-1.883-.4-2.819-.618-4.69-1.08-1.091-.27-1.637-.414-2.729-.7a38.8,38.8,0,0,0,3.125-4.594c1.5-2.669,3.425-11.449,3.634-12.349,8.252-35.78,15.977-71.675,23.42-107.629a24.577,24.577,0,0,0-1.062-13.392q28.635,4.939,57.185,10.375-11.3-2.159-22.61-4.228c18.856,3.455,52.087,5.266,57.461,9.506.432.342-5.686,6.981-7.629,10.543-.672,1.247-2.333,1.919-3.155,1.313a19.423,19.423,0,0,0-7.221-2.465c-14.136-2.435-28.26-4.972-42.384-7.467-2.567,9.65-5.248,19.264-7.959,28.871q17.731,2.879,35.565,5.152a60.716,60.716,0,0,0-12.654,15.377c-.636,1.146-.954,1.721-1.6,2.873-6.885-.756-13.74-1.6-20.607-2.513-2.6-.36-3.9-.552-6.489-.942q-8.267,27.78-17.243,55.338a190.885,190.885,0,0,0,30.251.906A15.673,15.673,0,0,0,678.561,591c2.039-1.187,3.125-.15,2.2,2.243-1.961,5.871-4.138,11.725-6.5,17.452a149.072,149.072,0,0,1-55.176-.312Z" transform="translate(-302.896 -424.208)" fill="#ffb800"/>
      <path id="Path_11" data-name="Path 11" d="M815.132,559.577c-14.07,20.469-40.488,35.685-64.73,42.557-8.894,2.525-18.34,4.054-22.322-6.693q13.17-16.913,26.461-33.735c-.786,3.071-8.018,32.56,4.408,27.3,12.738-5.392,39.745-25.879,24.985-42.624-9.848-10.208-8.18-24.6-3.5-36.146,8.007-19.737,29.645-30.053,49.3-36.608,10.339-3.448,23.942-7.743,31.5,3.6q-12.37,8.079-23.972,17.26c2.867-9.878-3.874-13.92-12.589-10.657-5.308,1.991-10.549,5.781-13.308,10.825-4.138,7.557.018,12.678,6.165,17.117,15.473,11.185,6.075,35.463-2.4,47.793Z" transform="translate(-349.494 -423.903)" fill="#ffb800"/>
    </g>
    <g id="Group_3" data-name="Group 3" transform="translate(95.68 142.93)">
      <path id="Path_12" data-name="Path 12" d="M95.68,277.644a20.187,20.187,0,0,0,3.155-4.444c1.6-2.939.96-10.711.978-11.713,1.517-33.04,12.247-61.671,32.494-87.808,2.867-3.514,4.63-5.847,5.272-6.489a185.411,185.411,0,0,1,33.01-24.259,71.3,71.3,0,0,0-9.95,12.487c-16.829,31.432-24.985,64.82-26.035,100.4,16.115-.972,32.206-1.577,48.351-1.733,7.1-.03,10.417-1.05,13.38-2.477,2.585-1.241,5.494.264,6.3,3.5,2,8.09,4.018,16.169,6.153,24.218-37.718-1.445-75.363-1.925-113.1-1.679Z" transform="translate(-95.68 -142.93)" fill="#ffb800"/>
      <path id="Path_13" data-name="Path 13" d="M368.829,287.858c-12.055-.954-24.122-1.775-36.194-2.531-1.4-6.273-2.009-9.374-3.359-15.533-4.828-21.759-20.691-32.368-42.444-29.609-5.3,13.908-10.178,27.9-14.454,42.15-6.213-.246-9.368-.324-15.545-.6-4.474-.2-6.717-.288-11.2-.444,8.474-4.438,12.69-16.385,16.325-24.409a509.264,509.264,0,0,1,45.19-93.931c2.015-4.642,2.7-8.9.99-12.84a261.522,261.522,0,0,1,26.365,3.263,9.986,9.986,0,0,1,6.945,7.809c7.185,42.684,17.452,84.575,27.4,126.665ZM320.49,230.985q-4.75-22.355-8.8-44.861c-6.711,12.846-12.93,25.855-18.724,39.139C302.119,224.706,312.873,225.078,320.49,230.985Z" transform="translate(-155.699 -145.804)" fill="#ffb800"/>
      <path id="Path_14" data-name="Path 14" d="M553.951,257.365a524.063,524.063,0,0,1,1.871,54.978,18.56,18.56,0,0,0-13.992,1,1.588,1.588,0,0,1-.174-.012c-12.127,5.919-24.391,9.308-37.993,8.576.006-.066.012-.1.018-.174-36.776-2.165-60.28-37.46-56.154-72.293,3.431-28.967,33.819-39.979,56.4-27.162,6.621,3.754,17.422-8.5,28.59-5.11q-5.353,10.1-11.3,19.875c-4.816-7.683-11.893-2.963-16.991-7.335-3.8-3.257-11.827-4.732-15.365.2-13.476,15.611-11.707,47.9-4.648,65.684,3.646,7.941,10.729,17,20.583,16.361,6.885-.126,15.533-1.967,20.775-6.633q.306-13.521.138-27.024c-.882-5.656-1.271-11.977-8.1-13.032,12.025-3.179,24.08-5.8,36.338-7.9Z" transform="translate(-236.323 -172.405)" fill="#ffb800"/>
      <path id="Path_15" data-name="Path 15" d="M756.207,236.355c3.419,35.553-20.115,87.364-63.65,78.086C658.114,307.1,633.926,266.42,631,233.627c-2.669-29.9,11.485-74.146,46.288-78.692,41.964-5.482,75.4,44.837,78.92,81.427Zm-51.164-52.249c-11.821-16.385-33.963-24.188-39.709,2.441-6.033,27.972-1.793,66.325,9.41,91.424,3.508,7.857,9.188,19.5,19.222,21.081,9.68,1.523,17.488-8.15,20.877-15.791,12.643-28.536,8.5-73.8-9.8-99.161Z" transform="translate(-309.821 -147.57)" fill="#ffb800"/>
      <path id="Path_16" data-name="Path 16" d="M931.987,272.589c.12,21.645-33.2,43.637-50.348,49.431-16.229,5.488-32.536.234-44.129-13.818a393.919,393.919,0,0,0,12.655-42.27c4.024,12.613,13.8,46.138,33.3,40.033,7.881-2.465,17.291-9,19.126-17.614,3.053-14.328-12.96-26.526-22.352-34.191-17.74-13.572-34.119-32.65-38.7-54.39-4.5-21.429,4.78-32.95,27.318-24.853,14.772,5.308,27.66,15.233,39.013,25.885a84.5,84.5,0,0,0-7.179,8.144c-6.627-9.776-15.635-19.689-27.354-22.976-6.207-1.739-7.8,2.453-6.537,6.423,4.066,12.822,16.085,20.937,26.365,28.464,16.283,11.917,38.7,29.627,38.821,51.74Z" transform="translate(-392.605 -154.692)" fill="#ffb800"/>
    </g>
  </g>
</svg>
