<svg xmlns="http://www.w3.org/2000/svg" xmlns:xlink="http://www.w3.org/1999/xlink" width="56.14" height="27.38" viewBox="0 0 56.14 27.38">
  <defs>
    <clipPath id="clip-path">
      <rect id="Rectangle_709" data-name="Rectangle 709" width="56.14" height="27.38" fill="none"/>
    </clipPath>
    <clipPath id="clip-path-2">
      <rect id="Rectangle_710" data-name="Rectangle 710" width="7.482" height="10.021" fill="none"/>
    </clipPath>
    <clipPath id="clip-path-3">
      <rect id="Rectangle_711" data-name="Rectangle 711" width="49.449" height="27.38" fill="none"/>
    </clipPath>
  </defs>
  <g id="Group_3439" data-name="Group 3439" transform="translate(0 0)">
    <g id="Group_3434" data-name="Group 3434" transform="translate(0 0)">
      <g id="Group_3433" data-name="Group 3433" clip-path="url(#clip-path)">
        <path id="Path_310" data-name="Path 310" d="M49.795,10.575l0,.012,0,.012c.222.832-.31,1.833-1.691,2.932A22.868,22.868,0,0,1,42.276,16.6a50.1,50.1,0,0,1-16.769,3.22h-.014a43.455,43.455,0,0,1-15.433-2.745,26.1,26.1,0,0,1-6.186-3.124c-1.584-1.156-2.51-2.342-2.649-3.47.01-1.032.764-2.153,2.205-3.276A23.163,23.163,0,0,1,9.3,4.124,45.745,45.745,0,0,1,25.5,1.233h.008A48.9,48.9,0,0,1,40.787,4.024a26.28,26.28,0,0,1,6.166,3.016A6.271,6.271,0,0,1,49.795,10.575Z" transform="translate(-0.862 -0.863)" fill="none" stroke="#fbb815" stroke-width="1.5"/>
        <path id="Path_311" data-name="Path 311" d="M72.925,14.564a7.482,7.482,0,1,1-14.963,0,7.482,7.482,0,1,1,14.963,0Z" transform="translate(-40.799 -4.922)" fill="none" stroke="#fbb815" stroke-width="1.6"/>
      </g>
    </g>
    <g id="Group_3436" data-name="Group 3436" transform="translate(20.904 4.587)">
      <g id="Group_3435" data-name="Group 3435" clip-path="url(#clip-path-2)">
        <path id="Path_312" data-name="Path 312" d="M71.312,45.957a.719.719,0,0,1-.4-.12.708.708,0,0,1-.264-.319.707.707,0,0,1,.155-.774.72.72,0,0,1,1.1.108.7.7,0,0,1-.09.9.72.72,0,0,1-.505.208" transform="translate(-70.596 -35.936)" fill="#fbb815"/>
        <path id="Path_313" data-name="Path 313" d="M81.483,18.441a2.97,2.97,0,0,0-.9-2.093,3.067,3.067,0,0,0-4.252,0,2.97,2.97,0,0,0-.9,2.093v4.31s6.048-.656,6.049-4.31" transform="translate(-74.001 -15.492)" fill="#fbb815"/>
      </g>
    </g>
    <g id="Group_3438" data-name="Group 3438" transform="translate(0 0)">
      <g id="Group_3437" data-name="Group 3437" clip-path="url(#clip-path-3)">
        <path id="Path_314" data-name="Path 314" d="M11.913,73.4a3.007,3.007,0,0,0-2.7,1.965,3.5,3.5,0,0,0,.168,1.955c.559,1.083,1.385,1.526,3.084,1.654,1.94.147,3.45-.423,4.027-1.521a2.079,2.079,0,0,0,.247-1.274,2.452,2.452,0,0,0-.209-1.247A3.045,3.045,0,0,0,13.794,73.4a6.164,6.164,0,0,0-1.881,0M1,76.163v2.767H3.211V77.262l.906,0A17.438,17.438,0,0,0,7.194,77a1.948,1.948,0,0,0,1.149-1.019,2.538,2.538,0,0,0-.154-1.505c-.37-.79-1.8-1.078-5.354-1.078H1Zm16.8,0v2.767h2.3V77.374l.464-.055c.256-.031.823-.057,1.26-.059a5.606,5.606,0,0,0,2.492-.405,1.494,1.494,0,0,0,.982-1.3,1.632,1.632,0,0,0-1.219-1.806,18.8,18.8,0,0,0-4.709-.347l-1.57,0Zm8.49,0v2.767h2.3V77.373l.41-.056a2.632,2.632,0,0,1,2.058.331,3,3,0,0,1,.4.716l.214.523,1.074.025,1.074.025L33.76,78.6a2.969,2.969,0,0,0-.666-1.395l-.265-.272.315-.238a1.59,1.59,0,0,0,.649-1.465,1.557,1.557,0,0,0-1.1-1.417,4.136,4.136,0,0,0-1.911-.338c-.744-.043-2.058-.079-2.922-.081l-1.57,0Zm8.49,0v2.767h6.633V77.525H37.083v-.791h3.36V75.592h-3.36V74.8h3.98V73.4H34.783Zm7.205-2.675a12.652,12.652,0,0,0,.956,1.911c.558,1,1.225,2.2,1.483,2.675l.469.857,1.068,0,1.067,0,1.561-2.765,1.56-2.765H47.827l-.781,1.694c-.429.932-.855,1.792-.945,1.911l-.164.216-.59-1.23c-.325-.676-.72-1.51-.879-1.853l-.289-.624-.422-.057a4.87,4.87,0,0,0-1.77.035m-36,1.482a.518.518,0,0,1,.141.355c0,.4-.225.512-1.105.57-.438.029-1.025.073-1.3.1l-.508.046V74.78l1.318.037a4.291,4.291,0,0,1,1.459.153m7.972.082a1.158,1.158,0,0,1,.479,1.143c0,.531-.014.576-.329.889-.892.887-2.679.3-2.673-.878a1.371,1.371,0,0,1,.724-1.236,2.1,2.1,0,0,1,1.8.081m8.875-.038c.239.214.233.337-.028.639-.212.245-.22.247-1.459.277l-1.246.03V74.782l1.274.033c1.1.028,1.3.056,1.459.2m8.495,0a.4.4,0,0,1,.012.654c-.123.122-.344.181-.818.216l-1.291.1-.641.048V74.779l1.279.038c1.085.033,1.306.063,1.459.2" transform="translate(-0.704 -51.613)" fill="#fff" fill-rule="evenodd"/>
      </g>
    </g>
  </g>
</svg>
